<svg width="512" height="512" viewBox="0 0 512 512" fill="none" xmlns="http://www.w3.org/2000/svg" role="img" aria-labelledby="title desc">
  <title id="title">All4Animal paw mark</title>
  <desc id="desc">A warm rounded paw print logo mark for All4Animal.</desc>
  <rect width="512" height="512" rx="128" fill="#EDF4FF"/>
  <circle cx="256" cy="256" r="206" fill="#FFF8EF"/>
  <circle cx="256" cy="256" r="206" stroke="#F4A261" stroke-width="18"/>

  <path
    d="M171.43 196.27C153.17 201.16 133.36 187.3 127.18 165.31C121 143.31 130.79 121.53 149.05 116.64C167.32 111.75 187.13 125.61 193.31 147.6C199.49 169.6 189.7 191.38 171.43 196.27Z"
    fill="#F4A261"
  />
  <path
    d="M238.58 168.96C218.63 170.71 200.85 152.85 198.87 129.07C196.89 105.3 211.45 84.61 231.4 82.86C251.35 81.11 269.13 98.97 271.11 122.75C273.09 146.52 258.53 167.21 238.58 168.96Z"
    fill="#F4A261"
  />
  <path
    d="M313.42 168.96C293.47 167.21 278.91 146.52 280.89 122.75C282.87 98.97 300.65 81.11 320.6 82.86C340.55 84.61 355.11 105.3 353.13 129.07C351.15 152.85 333.37 170.71 313.42 168.96Z"
    fill="#F4A261"
  />
  <path
    d="M340.57 196.27C322.3 191.38 312.51 169.6 318.69 147.6C324.87 125.61 344.68 111.75 362.95 116.64C381.21 121.53 391 143.31 384.82 165.31C378.64 187.3 358.83 201.16 340.57 196.27Z"
    fill="#F4A261"
  />

  <path
    d="M256 203.5C296.35 203.5 365.5 262.7 365.5 329.26C365.5 367.42 339.88 397.5 304.88 397.5C285.32 397.5 274.51 389.43 256 389.43C237.49 389.43 226.68 397.5 207.12 397.5C172.12 397.5 146.5 367.42 146.5 329.26C146.5 262.7 215.65 203.5 256 203.5Z"
    fill="#091D2E"
  />
  <path
    d="M256 252.71C263.82 237.45 286.53 239.71 293.67 254.89C299.13 266.5 295.5 281.45 285.78 289.83L256 315.5L226.22 289.83C216.5 281.45 212.87 266.5 218.33 254.89C225.47 239.71 248.18 237.45 256 252.71Z"
    fill="#FFF8EF"
  />
</svg>
